<?xml version="1.0" encoding="UTF-8" standalone="no"?>
<!DOCTYPE svg PUBLIC "-//W3C//DTD SVG 1.1//EN" "http://www.w3.org/Graphics/SVG/1.1/DTD/svg11.dtd">
<svg xmlns="http://www.w3.org/2000/svg" version="1.1" viewBox="0.00 0.00 512.00 512.00">
<g stroke-width="2.00" fill="none" stroke-linecap="butt">
<path stroke="#003352" vector-effect="non-scaling-stroke" d="
  M 245.76 0.00
  L 221.72 2.20"
/>
<path stroke="#012130" vector-effect="non-scaling-stroke" d="
  M 221.72 2.20
  L 219.68 2.31"
/>
<path stroke="#123b1e" vector-effect="non-scaling-stroke" d="
  M 219.68 2.31
  C 176.79 8.26 137.77 23.92 102.64 49.30"
/>
<path stroke="#335121" vector-effect="non-scaling-stroke" d="
  M 102.64 49.30
  C 86.43 61.10 71.77 74.72 58.66 90.17
  C 58.23 90.68 58.00 91.45 57.95 92.48"
/>
<path stroke="#012130" vector-effect="non-scaling-stroke" d="
  M 57.95 92.48
  C 28.62 128.07 10.14 168.53 2.50 213.84
  C 2.13 216.06 1.70 219.17 1.21 223.18
  C 0.84 226.29 0.43 229.39 0.00 232.50"
/>
<path stroke="#003352" vector-effect="non-scaling-stroke" d="
  M 262.07 0.00
  C 307.54 2.06 349.33 13.91 387.43 35.55
  C 447.90 69.89 489.71 126.36 503.67 195.57
  C 511.47 234.24 511.52 274.11 505.77 313.24
  C 504.47 322.05 502.38 331.14 499.51 340.53"
/>
<path stroke="#126e70" vector-effect="non-scaling-stroke" d="
  M 499.51 340.53
  C 493.80 335.15 487.46 331.33 480.51 329.06
  C 475.98 327.58 471.60 326.54 467.37 325.93"
/>
<path stroke="#3995c4" vector-effect="non-scaling-stroke" d="
  M 467.37 325.93
  L 438.26 320.76"
/>
<path stroke="#56a3c8" vector-effect="non-scaling-stroke" d="
  M 438.26 320.76
  C 433.24 319.09 428.60 317.21 424.35 315.11
  C 418.94 312.44 413.65 309.41 408.11 307.20
  C 403.32 305.29 398.63 303.24 394.05 301.04
  C 388.36 298.30 366.85 290.08 363.76 299.16
  C 361.68 305.28 367.43 308.89 372.07 311.10
  C 376.44 313.19 380.89 315.49 385.43 318.01
  C 391.88 321.59 393.68 326.59 393.45 333.55
  C 393.27 338.69 392.47 347.34 394.91 351.30
  C 396.73 354.25 398.31 356.95 399.66 359.41
  C 400.99 361.84 400.16 363.53 397.16 364.48"
/>
<path stroke="#2d8cc2" vector-effect="non-scaling-stroke" d="
  M 397.16 364.48
  C 393.52 365.31 390.49 364.64 388.06 362.47
  C 379.99 355.23 376.87 346.17 378.68 335.29
  C 379.60 329.77 379.57 325.67 375.38 321.68
  C 371.31 317.81 366.62 315.25 361.29 314.00
  C 352.13 311.85 343.10 311.86 334.19 314.01"
/>
<path stroke="#338473" vector-effect="non-scaling-stroke" d="
  M 334.19 314.01
  C 329.70 315.00 325.79 316.85 322.48 319.55
  C 316.57 324.37 316.92 332.46 318.16 339.13
  C 319.02 343.74 319.81 348.36 320.54 353.01
  C 321.93 361.94 320.47 369.84 316.16 376.70"
/>
<path stroke="#2d8cc2" vector-effect="non-scaling-stroke" d="
  M 316.16 376.70
  C 308.46 385.99 299.66 391.63 290.16 397.88
  C 279.49 404.91 269.96 416.77 271.06 429.90
  C 271.78 438.42 279.36 443.16 287.32 444.12
  C 303.33 446.04 316.68 439.73 330.32 432.12
  C 336.11 428.90 341.99 426.35 347.96 424.46
  C 353.84 422.61 359.85 422.44 365.95 422.97
  C 372.21 423.51 376.53 419.01 377.91 413.37
  C 378.34 411.58 378.39 408.67 378.06 404.62
  C 377.76 400.95 377.45 397.57 377.12 394.50"
/>
<path stroke="#56a3c8" vector-effect="non-scaling-stroke" d="
  M 377.12 394.50
  C 377.48 392.19 377.58 389.73 378.27 387.87
  C 380.10 382.92 383.85 380.27 389.51 379.91
  C 391.21 379.80 393.16 379.69 395.35 379.60"
/>
<path stroke="#338473" vector-effect="non-scaling-stroke" d="
  M 395.35 379.60
  C 398.56 380.31 399.23 383.05 397.35 387.83
  C 396.48 390.03 394.52 391.97 393.55 394.20
  C 389.64 403.16 396.96 406.85 403.38 410.69
  C 407.23 412.99 409.58 416.52 410.42 421.29
  C 411.76 428.90 408.21 435.77 404.86 442.71
  C 404.51 443.44 404.56 444.30 405.01 444.98
  L 412.49 456.30"
/>
<path stroke="#003352" vector-effect="non-scaling-stroke" d="
  M 412.49 456.30
  C 391.29 471.76 369.61 484.58 345.11 493.28"
/>
<path stroke="#015482" vector-effect="non-scaling-stroke" d="
  M 345.11 493.28
  C 339.68 494.05 334.31 494.87 329.00 495.76
  C 325.13 496.41 318.04 496.91 307.75 497.28
  C 293.27 497.79 279.02 496.27 264.99 492.72
  C 244.35 487.49 227.14 476.05 213.35 458.41
  C 203.71 446.08 195.81 431.56 189.65 414.86"
/>
<path stroke="#2d8cc2" vector-effect="non-scaling-stroke" d="
  M 189.65 414.86
  C 192.72 412.45 194.92 410.33 196.25 408.50
  C 198.49 405.40 201.27 400.93 204.59 395.09
  C 205.64 393.26 208.18 388.27 212.23 380.13
  C 217.56 369.42 223.79 360.02 230.93 351.94
  C 237.80 344.16 246.87 334.79 258.12 323.83"
/>
<path stroke="#015482" vector-effect="non-scaling-stroke" d="
  M 258.12 323.83
  C 259.53 322.70 260.87 321.39 262.13 319.90
  C 265.42 316.01 268.69 312.20 271.94 308.48
  C 275.25 304.69 278.77 299.70 282.50 293.51
  C 286.91 286.18 289.21 278.34 289.40 270.01
  C 289.49 265.95 288.63 261.84 286.84 257.67"
/>
<path stroke="#338473" vector-effect="non-scaling-stroke" d="
  M 286.84 257.67
  C 285.78 254.71 284.65 252.25 283.44 250.29
  C 280.69 245.86 277.20 241.46 272.97 237.09"
/>
<path stroke="#015482" vector-effect="non-scaling-stroke" d="
  M 272.97 237.09
  C 278.12 231.19 283.11 225.21 287.92 219.16
  C 296.41 208.49 302.32 196.33 307.03 183.36
  C 308.50 179.31 309.63 174.86 310.42 170.02
  C 316.73 131.19 307.83 90.82 288.47 56.89
  C 277.12 37.01 261.01 19.29 240.29 9.12
  C 235.08 6.56 229.15 4.88 222.52 4.09
  C 221.59 3.98 221.33 3.35 221.72 2.20"
/>
<path stroke="#005f93" vector-effect="non-scaling-stroke" d="
  M 362.72 130.56
  C 355.43 134.01 350.60 136.79 348.23 138.92
  C 344.08 142.63 341.40 147.18 340.20 152.57
  C 337.93 162.75 346.16 170.56 355.40 172.82
  C 363.77 174.88 372.38 173.07 380.56 171.10
  C 383.77 170.33 387.10 169.96 390.57 169.99
  C 391.06 170.00 392.56 170.24 395.09 170.73
  C 396.84 171.07 398.42 170.89 399.84 170.19"
/>
<path stroke="#3995c4" vector-effect="non-scaling-stroke" d="
  M 399.84 170.19
  C 404.54 173.43 410.12 176.24 416.59 178.63
  C 428.08 182.88 438.08 180.82 446.57 172.47
  C 450.52 168.58 452.97 164.32 453.91 159.67
  C 456.06 148.96 454.19 138.89 448.30 129.45
  C 442.97 120.92 437.51 112.43 431.94 103.98"
/>
<path stroke="#338473" vector-effect="non-scaling-stroke" d="
  M 431.94 103.98
  C 427.17 96.51 421.54 89.76 415.03 83.73
  C 412.42 81.32 409.65 79.29 406.71 77.65
  C 400.50 74.19 393.48 73.27 386.74 75.79
  C 380.61 78.08 375.50 81.66 371.42 86.54
  C 368.20 90.39 367.48 94.80 369.26 99.77
  C 372.86 109.80 377.43 119.18 367.54 127.53
  C 366.88 128.08 365.27 129.09 362.72 130.56"
/>
<path stroke="#6cb393" vector-effect="non-scaling-stroke" d="
  M 431.94 103.98
  C 415.69 120.56 397.52 134.97 377.42 147.21"
/>
<path stroke="#337c62" vector-effect="non-scaling-stroke" d="
  M 377.42 147.21
  L 362.72 130.56"
/>
<path stroke="#398eb3" vector-effect="non-scaling-stroke" d="
  M 399.84 170.19
  L 377.42 147.21"
/>
<path stroke="#338473" vector-effect="non-scaling-stroke" d="
  M 366.79 197.88
  C 363.06 199.35 361.17 201.83 361.13 205.30
  C 360.97 217.72 373.89 223.50 384.46 221.85
  C 389.88 221.01 394.33 217.39 393.79 211.59
  C 393.20 205.25 389.95 200.85 384.04 198.40
  C 378.00 195.90 372.25 195.73 366.79 197.88"
/>
<path stroke="#012130" vector-effect="non-scaling-stroke" d="
  M 0.00 277.63
  C 3.66 317.22 15.34 353.34 35.04 385.97
  C 71.97 447.15 131.87 490.33 201.85 505.01
  C 235.28 512.02 269.33 512.22 304.00 505.59
  C 318.45 502.82 332.15 498.72 345.11 493.28"
/>
<path stroke="#335121" vector-effect="non-scaling-stroke" d="
  M 412.49 456.30
  C 422.87 448.55 432.08 441.16 440.12 434.13
  C 443.10 431.52 446.59 428.07 450.60 423.78"
/>
<path stroke="#123b1e" vector-effect="non-scaling-stroke" d="
  M 450.60 423.78
  C 471.90 402.05 487.35 374.97 497.68 346.51
  C 498.55 344.11 499.16 342.12 499.51 340.53"
/>
<path stroke="#347251" vector-effect="non-scaling-stroke" d="
  M 272.97 237.09
  C 265.72 229.70 257.32 223.49 247.77 218.48
  C 247.19 218.17 246.82 218.11 246.66 218.28"
/>
<path stroke="#3983a2" vector-effect="non-scaling-stroke" d="
  M 246.66 218.28
  C 246.37 217.94 246.26 217.71 245.88 217.48
  C 238.37 213.00 230.54 209.60 222.40 207.29"
/>
<path stroke="#2d7aa0" vector-effect="non-scaling-stroke" d="
  M 222.40 207.29
  C 219.24 205.85 216.94 205.00 215.50 204.75
  C 209.24 203.65 203.11 201.92 196.98 200.75
  C 190.93 199.58 185.05 198.46 179.34 197.37
  C 171.47 195.86 164.01 193.61 156.95 190.31
  C 150.00 187.05 144.70 182.38 145.92 173.87
  C 146.82 167.54 151.75 160.72 155.90 155.95
  C 160.87 150.24 166.84 145.06 173.83 140.40
  C 184.10 133.55 194.31 126.62 204.46 119.59"
/>
<path stroke="#135c4e" vector-effect="non-scaling-stroke" d="
  M 204.46 119.59
  C 205.09 118.99 206.27 118.13 208.00 117.02
  C 218.75 110.09 228.59 101.78 237.53 92.07
  C 244.08 84.95 250.75 72.80 248.85 62.88
  C 246.68 51.57 239.74 41.98 227.68 41.48
  C 220.66 41.19 214.54 41.56 209.31 42.59
  C 204.48 43.54 199.76 44.57 195.17 45.68
  C 190.50 46.81 185.69 47.33 180.88 47.64
  C 176.27 47.95 171.41 45.94 170.11 41.09
  C 169.29 38.00 169.07 35.42 169.46 33.34
  C 170.83 25.84 178.27 18.61 185.57 15.79
  C 192.49 13.11 199.37 10.75 206.66 9.04
  C 210.07 8.24 213.56 7.06 217.12 5.50
  C 217.55 5.31 218.00 5.15 218.49 5.01
  C 219.57 4.70 219.97 3.80 219.68 2.31"
/>
<path stroke="#3f938d" vector-effect="non-scaling-stroke" d="
  M 204.46 119.59
  L 184.18 107.59"
/>
<path stroke="#4b9d8f" vector-effect="non-scaling-stroke" d="
  M 184.18 107.59
  C 173.34 100.87 162.65 94.41 152.41 87.00
  C 151.06 86.02 148.84 84.49 145.75 82.40
  C 143.67 80.99 141.49 79.42 139.21 77.67"
/>
<path stroke="#458b3f" vector-effect="non-scaling-stroke" d="
  M 139.21 77.67
  C 127.09 68.94 114.90 59.48 102.64 49.30"
/>
<path stroke="#6cb393" vector-effect="non-scaling-stroke" d="
  M 139.21 77.67
  L 131.89 118.27"
/>
<path stroke="#60a991" vector-effect="non-scaling-stroke" d="
  M 131.89 118.27
  C 131.42 119.90 130.98 121.62 130.58 123.42
  C 126.99 139.75 122.44 155.85 116.91 171.74"
/>
<path stroke="#347251" vector-effect="non-scaling-stroke" d="
  M 116.91 171.74
  C 110.75 168.59 105.00 165.65 99.66 162.92
  C 86.85 156.35 76.60 147.21 68.89 135.48
  C 64.51 128.83 61.39 121.05 59.53 112.16
  C 58.97 109.48 58.62 106.21 58.47 102.34
  C 58.35 99.06 58.18 95.77 57.95 92.48"
/>
<path stroke="#65bbe1" vector-effect="non-scaling-stroke" d="
  M 184.18 107.59
  C 180.65 108.73 178.01 109.43 176.25 109.70
  C 161.43 111.96 146.64 114.82 131.89 118.27"
/>
<path stroke="#2d7aa0" vector-effect="non-scaling-stroke" d="
  M 116.91 171.74
  C 124.48 175.93 130.01 179.16 133.52 181.42
  C 144.13 188.26 153.36 196.51 157.19 208.99
  C 157.76 210.82 158.60 214.20 159.71 219.15"
/>
<path stroke="#3983a2" vector-effect="non-scaling-stroke" d="
  M 159.71 219.15
  L 160.09 226.59"
/>
<path stroke="#347251" vector-effect="non-scaling-stroke" d="
  M 160.09 226.59
  C 158.69 234.87 158.24 243.39 158.75 252.14"
/>
<path stroke="#3983a2" vector-effect="non-scaling-stroke" d="
  M 158.75 252.14
  C 157.88 261.00 158.72 269.12 161.26 276.50
  C 163.35 282.59 166.49 290.61 170.66 300.56
  C 173.05 306.26 174.46 310.23 174.87 312.48
  C 176.90 323.48 176.63 333.24 174.05 341.76
  C 172.38 347.28 171.35 350.92 170.94 352.69"
/>
<path stroke="#2d7aa0" vector-effect="non-scaling-stroke" d="
  M 170.94 352.69
  C 166.81 363.84 163.89 375.29 162.20 387.04
  C 161.87 389.33 161.69 391.64 161.66 393.97
  C 161.55 400.60 161.81 406.14 165.53 411.94
  C 167.12 414.42 169.13 416.31 171.56 417.61
  C 178.36 421.24 183.24 419.51 189.65 414.86"
/>
<path stroke="#65bbe1" vector-effect="non-scaling-stroke" d="
  M 222.40 207.29
  C 217.05 209.16 211.63 210.59 206.14 211.56
  C 200.46 212.57 196.24 213.41 193.49 214.09
  C 184.32 216.34 175.08 218.23 165.75 219.75
  C 163.96 220.04 161.94 219.84 159.71 219.15"
/>
<path stroke="#6cb393" vector-effect="non-scaling-stroke" d="
  M 246.66 218.28
  C 243.99 226.14 241.11 233.92 238.02 241.63
  C 236.42 245.63 235.59 248.60 230.86 247.45
  C 206.88 241.61 183.29 234.66 160.09 226.59"
/>
<path stroke="#347251" vector-effect="non-scaling-stroke" d="
  M 286.84 257.67
  C 285.26 257.98 283.73 258.00 282.25 257.72
  C 267.30 254.90 252.30 252.38 237.48 248.80
  C 235.99 248.43 234.95 248.96 234.36 250.37
  C 229.57 261.81 224.22 272.99 218.32 283.90"
/>
<path stroke="#6cb393" vector-effect="non-scaling-stroke" d="
  M 218.32 283.90
  C 209.13 277.31 203.27 273.26 200.75 271.77
  C 187.44 263.90 173.44 257.35 158.75 252.14"
/>
<path stroke="#2d7aa0" vector-effect="non-scaling-stroke" d="
  M 258.12 323.83
  C 257.23 323.23 256.69 322.80 256.49 322.53
  C 249.79 313.79 242.43 305.65 234.41 298.10
  C 232.06 295.89 226.84 291.35 218.73 284.49"
/>
<path stroke="#3983a2" vector-effect="non-scaling-stroke" d="
  M 218.73 284.49
  C 218.66 284.26 218.53 284.06 218.32 283.90"
/>
<path stroke="#65bbe1" vector-effect="non-scaling-stroke" d="
  M 218.73 284.49
  C 217.26 285.67 216.15 286.97 215.38 288.39
  C 204.37 308.70 190.79 329.19 174.64 349.87
  C 173.95 350.75 173.36 351.69 172.86 352.68
  C 172.69 353.04 172.39 353.28 171.98 353.39
  C 171.65 353.48 171.39 353.39 171.20 353.10
  L 170.94 352.69"
/>
<path stroke="#8fd2e8" vector-effect="non-scaling-stroke" d="
  M 438.26 320.76
  L 439.17 345.67"
/>
<path stroke="#89c097" vector-effect="non-scaling-stroke" d="
  M 439.17 345.67
  C 426.50 353.63 413.26 360.85 399.46 367.33"
/>
<path stroke="#83c8e6" vector-effect="non-scaling-stroke" d="
  M 399.46 367.33
  C 398.95 367.45 398.53 367.44 398.19 367.30
  C 397.88 367.18 397.70 366.96 397.63 366.64
  L 397.16 364.48"
/>
<path stroke="#60a991" vector-effect="non-scaling-stroke" d="
  M 399.46 367.33
  C 398.44 368.07 397.86 368.93 397.71 369.91"
/>
<path stroke="#83c8e6" vector-effect="non-scaling-stroke" d="
  M 397.71 369.91
  C 398.02 369.06 397.48 368.67 396.09 368.73
  C 395.91 368.74 395.74 368.78 395.58 368.85
  C 387.07 372.74 379.00 376.16 371.39 379.12
  C 370.80 379.35 370.29 379.75 369.93 380.27
  L 366.16 385.78
  C 365.81 386.30 365.95 387.02 366.47 387.37
  L 377.12 394.50"
/>
<path stroke="#60a991" vector-effect="non-scaling-stroke" d="
  M 316.16 376.70
  L 328.14 391.15
  C 328.84 392.00 329.97 392.35 331.04 392.06
  C 342.03 389.04 353.09 385.61 364.21 381.78
  C 365.56 381.31 365.89 380.46 365.19 379.21
  C 356.88 364.32 349.27 348.65 342.35 332.20
  C 339.82 326.19 337.10 320.12 334.19 314.01"
/>
<path stroke="#4b9d8f" vector-effect="non-scaling-stroke" d="
  M 467.37 325.93
  C 458.04 333.22 448.71 339.81 439.38 345.68"
/>
<path stroke="#6cb393" vector-effect="non-scaling-stroke" d="
  M 439.38 345.68
  C 439.31 345.68 439.24 345.68 439.17 345.67"
/>
<path stroke="#458b3f" vector-effect="non-scaling-stroke" d="
  M 450.60 423.78
  C 449.98 419.77 448.63 415.52 447.98 412.05
  C 445.13 396.86 442.93 382.65 441.36 369.43
  C 440.58 362.84 439.92 354.92 439.38 345.68"
/>
<path stroke="#89c097" vector-effect="non-scaling-stroke" d="
  M 395.35 379.60
  C 396.63 376.57 397.42 373.34 397.71 369.91"
/>
</g>
<path fill="#000000" d="
  M 0.00 0.00
  L 245.76 0.00
  L 221.72 2.20
  L 219.68 2.31
  C 176.79 8.26 137.77 23.92 102.64 49.30
  C 86.43 61.10 71.77 74.72 58.66 90.17
  C 58.23 90.68 58.00 91.45 57.95 92.48
  C 28.62 128.07 10.14 168.53 2.50 213.84
  C 2.13 216.06 1.70 219.17 1.21 223.18
  C 0.84 226.29 0.43 229.39 0.00 232.50
  L 0.00 0.00
  Z"
/>
<path fill="#0066a4" d="
  M 245.76 0.00
  L 262.07 0.00
  C 307.54 2.06 349.33 13.91 387.43 35.55
  C 447.90 69.89 489.71 126.36 503.67 195.57
  C 511.47 234.24 511.52 274.11 505.77 313.24
  C 504.47 322.05 502.38 331.14 499.51 340.53
  C 493.80 335.15 487.46 331.33 480.51 329.06
  C 475.98 327.58 471.60 326.54 467.37 325.93
  L 438.26 320.76
  C 433.24 319.09 428.60 317.21 424.35 315.11
  C 418.94 312.44 413.65 309.41 408.11 307.20
  C 403.32 305.29 398.63 303.24 394.05 301.04
  C 388.36 298.30 366.85 290.08 363.76 299.16
  C 361.68 305.28 367.43 308.89 372.07 311.10
  C 376.44 313.19 380.89 315.49 385.43 318.01
  C 391.88 321.59 393.68 326.59 393.45 333.55
  C 393.27 338.69 392.47 347.34 394.91 351.30
  C 396.73 354.25 398.31 356.95 399.66 359.41
  C 400.99 361.84 400.16 363.53 397.16 364.48
  C 393.52 365.31 390.49 364.64 388.06 362.47
  C 379.99 355.23 376.87 346.17 378.68 335.29
  C 379.60 329.77 379.57 325.67 375.38 321.68
  C 371.31 317.81 366.62 315.25 361.29 314.00
  C 352.13 311.85 343.10 311.86 334.19 314.01
  C 329.70 315.00 325.79 316.85 322.48 319.55
  C 316.57 324.37 316.92 332.46 318.16 339.13
  C 319.02 343.74 319.81 348.36 320.54 353.01
  C 321.93 361.94 320.47 369.84 316.16 376.70
  C 308.46 385.99 299.66 391.63 290.16 397.88
  C 279.49 404.91 269.96 416.77 271.06 429.90
  C 271.78 438.42 279.36 443.16 287.32 444.12
  C 303.33 446.04 316.68 439.73 330.32 432.12
  C 336.11 428.90 341.99 426.35 347.96 424.46
  C 353.84 422.61 359.85 422.44 365.95 422.97
  C 372.21 423.51 376.53 419.01 377.91 413.37
  C 378.34 411.58 378.39 408.67 378.06 404.62
  C 377.76 400.95 377.45 397.57 377.12 394.50
  C 377.48 392.19 377.58 389.73 378.27 387.87
  C 380.10 382.92 383.85 380.27 389.51 379.91
  C 391.21 379.80 393.16 379.69 395.35 379.60
  C 398.56 380.31 399.23 383.05 397.35 387.83
  C 396.48 390.03 394.52 391.97 393.55 394.20
  C 389.64 403.16 396.96 406.85 403.38 410.69
  C 407.23 412.99 409.58 416.52 410.42 421.29
  C 411.76 428.90 408.21 435.77 404.86 442.71
  C 404.51 443.44 404.56 444.30 405.01 444.98
  L 412.49 456.30
  C 391.29 471.76 369.61 484.58 345.11 493.28
  C 339.68 494.05 334.31 494.87 329.00 495.76
  C 325.13 496.41 318.04 496.91 307.75 497.28
  C 293.27 497.79 279.02 496.27 264.99 492.72
  C 244.35 487.49 227.14 476.05 213.35 458.41
  C 203.71 446.08 195.81 431.56 189.65 414.86
  C 192.72 412.45 194.92 410.33 196.25 408.50
  C 198.49 405.40 201.27 400.93 204.59 395.09
  C 205.64 393.26 208.18 388.27 212.23 380.13
  C 217.56 369.42 223.79 360.02 230.93 351.94
  C 237.80 344.16 246.87 334.79 258.12 323.83
  C 259.53 322.70 260.87 321.39 262.13 319.90
  C 265.42 316.01 268.69 312.20 271.94 308.48
  C 275.25 304.69 278.77 299.70 282.50 293.51
  C 286.91 286.18 289.21 278.34 289.40 270.01
  C 289.49 265.95 288.63 261.84 286.84 257.67
  C 285.78 254.71 284.65 252.25 283.44 250.29
  C 280.69 245.86 277.20 241.46 272.97 237.09
  C 278.12 231.19 283.11 225.21 287.92 219.16
  C 296.41 208.49 302.32 196.33 307.03 183.36
  C 308.50 179.31 309.63 174.86 310.42 170.02
  C 316.73 131.19 307.83 90.82 288.47 56.89
  C 277.12 37.01 261.01 19.29 240.29 9.12
  C 235.08 6.56 229.15 4.88 222.52 4.09
  C 221.59 3.98 221.33 3.35 221.72 2.20
  L 245.76 0.00
  Z
  M 362.72 130.56
  C 355.43 134.01 350.60 136.79 348.23 138.92
  C 344.08 142.63 341.40 147.18 340.20 152.57
  C 337.93 162.75 346.16 170.56 355.40 172.82
  C 363.77 174.88 372.38 173.07 380.56 171.10
  C 383.77 170.33 387.10 169.96 390.57 169.99
  C 391.06 170.00 392.56 170.24 395.09 170.73
  C 396.84 171.07 398.42 170.89 399.84 170.19
  C 404.54 173.43 410.12 176.24 416.59 178.63
  C 428.08 182.88 438.08 180.82 446.57 172.47
  C 450.52 168.58 452.97 164.32 453.91 159.67
  C 456.06 148.96 454.19 138.89 448.30 129.45
  C 442.97 120.92 437.51 112.43 431.94 103.98
  C 427.17 96.51 421.54 89.76 415.03 83.73
  C 412.42 81.32 409.65 79.29 406.71 77.65
  C 400.50 74.19 393.48 73.27 386.74 75.79
  C 380.61 78.08 375.50 81.66 371.42 86.54
  C 368.20 90.39 367.48 94.80 369.26 99.77
  C 372.86 109.80 377.43 119.18 367.54 127.53
  C 366.88 128.08 365.27 129.09 362.72 130.56
  Z
  M 366.79 197.88
  C 363.06 199.35 361.17 201.83 361.13 205.30
  C 360.97 217.72 373.89 223.50 384.46 221.85
  C 389.88 221.01 394.33 217.39 393.79 211.59
  C 393.20 205.25 389.95 200.85 384.04 198.40
  C 378.00 195.90 372.25 195.73 366.79 197.88
  Z"
/>
<path fill="#000000" d="
  M 262.07 0.00
  L 512.00 0.00
  L 512.00 512.00
  L 0.00 512.00
  L 0.00 277.63
  C 3.66 317.22 15.34 353.34 35.04 385.97
  C 71.97 447.15 131.87 490.33 201.85 505.01
  C 235.28 512.02 269.33 512.22 304.00 505.59
  C 318.45 502.82 332.15 498.72 345.11 493.28
  C 369.61 484.58 391.29 471.76 412.49 456.30
  C 422.87 448.55 432.08 441.16 440.12 434.13
  C 443.10 431.52 446.59 428.07 450.60 423.78
  C 471.90 402.05 487.35 374.97 497.68 346.51
  C 498.55 344.11 499.16 342.12 499.51 340.53
  C 502.38 331.14 504.47 322.05 505.77 313.24
  C 511.52 274.11 511.47 234.24 503.67 195.57
  C 489.71 126.36 447.90 69.89 387.43 35.55
  C 349.33 13.91 307.54 2.06 262.07 0.00
  Z"
/>
<path fill="#014260" d="
  M 221.72 2.20
  C 221.33 3.35 221.59 3.98 222.52 4.09
  C 229.15 4.88 235.08 6.56 240.29 9.12
  C 261.01 19.29 277.12 37.01 288.47 56.89
  C 307.83 90.82 316.73 131.19 310.42 170.02
  C 309.63 174.86 308.50 179.31 307.03 183.36
  C 302.32 196.33 296.41 208.49 287.92 219.16
  C 283.11 225.21 278.12 231.19 272.97 237.09
  C 265.72 229.70 257.32 223.49 247.77 218.48
  C 247.19 218.17 246.82 218.11 246.66 218.28
  C 246.37 217.94 246.26 217.71 245.88 217.48
  C 238.37 213.00 230.54 209.60 222.40 207.29
  C 219.24 205.85 216.94 205.00 215.50 204.75
  C 209.24 203.65 203.11 201.92 196.98 200.75
  C 190.93 199.58 185.05 198.46 179.34 197.37
  C 171.47 195.86 164.01 193.61 156.95 190.31
  C 150.00 187.05 144.70 182.38 145.92 173.87
  C 146.82 167.54 151.75 160.72 155.90 155.95
  C 160.87 150.24 166.84 145.06 173.83 140.40
  C 184.10 133.55 194.31 126.62 204.46 119.59
  C 205.09 118.99 206.27 118.13 208.00 117.02
  C 218.75 110.09 228.59 101.78 237.53 92.07
  C 244.08 84.95 250.75 72.80 248.85 62.88
  C 246.68 51.57 239.74 41.98 227.68 41.48
  C 220.66 41.19 214.54 41.56 209.31 42.59
  C 204.48 43.54 199.76 44.57 195.17 45.68
  C 190.50 46.81 185.69 47.33 180.88 47.64
  C 176.27 47.95 171.41 45.94 170.11 41.09
  C 169.29 38.00 169.07 35.42 169.46 33.34
  C 170.83 25.84 178.27 18.61 185.57 15.79
  C 192.49 13.11 199.37 10.75 206.66 9.04
  C 210.07 8.24 213.56 7.06 217.12 5.50
  C 217.55 5.31 218.00 5.15 218.49 5.01
  C 219.57 4.70 219.97 3.80 219.68 2.31
  L 221.72 2.20
  Z"
/>
<path fill="#24753b" d="
  M 219.68 2.31
  C 219.97 3.80 219.57 4.70 218.49 5.01
  C 218.00 5.15 217.55 5.31 217.12 5.50
  C 213.56 7.06 210.07 8.24 206.66 9.04
  C 199.37 10.75 192.49 13.11 185.57 15.79
  C 178.27 18.61 170.83 25.84 169.46 33.34
  C 169.07 35.42 169.29 38.00 170.11 41.09
  C 171.41 45.94 176.27 47.95 180.88 47.64
  C 185.69 47.33 190.50 46.81 195.17 45.68
  C 199.76 44.57 204.48 43.54 209.31 42.59
  C 214.54 41.56 220.66 41.19 227.68 41.48
  C 239.74 41.98 246.68 51.57 248.85 62.88
  C 250.75 72.80 244.08 84.95 237.53 92.07
  C 228.59 101.78 218.75 110.09 208.00 117.02
  C 206.27 118.13 205.09 118.99 204.46 119.59
  L 184.18 107.59
  C 173.34 100.87 162.65 94.41 152.41 87.00
  C 151.06 86.02 148.84 84.49 145.75 82.40
  C 143.67 80.99 141.49 79.42 139.21 77.67
  C 127.09 68.94 114.90 59.48 102.64 49.30
  C 137.77 23.92 176.79 8.26 219.68 2.31
  Z"
/>
<path fill="#66a142" d="
  M 102.64 49.30
  C 114.90 59.48 127.09 68.94 139.21 77.67
  L 131.89 118.27
  C 131.42 119.90 130.98 121.62 130.58 123.42
  C 126.99 139.75 122.44 155.85 116.91 171.74
  C 110.75 168.59 105.00 165.65 99.66 162.92
  C 86.85 156.35 76.60 147.21 68.89 135.48
  C 64.51 128.83 61.39 121.05 59.53 112.16
  C 58.97 109.48 58.62 106.21 58.47 102.34
  C 58.35 99.06 58.18 95.77 57.95 92.48
  C 58.00 91.45 58.23 90.68 58.66 90.17
  C 71.77 74.72 86.43 61.10 102.64 49.30
  Z"
/>
<path fill="#66a142" d="
  M 431.94 103.98
  C 415.69 120.56 397.52 134.97 377.42 147.21
  L 362.72 130.56
  C 365.27 129.09 366.88 128.08 367.54 127.53
  C 377.43 119.18 372.86 109.80 369.26 99.77
  C 367.48 94.80 368.20 90.39 371.42 86.54
  C 375.50 81.66 380.61 78.08 386.74 75.79
  C 393.48 73.27 400.50 74.19 406.71 77.65
  C 409.65 79.29 412.42 81.32 415.03 83.73
  C 421.54 89.76 427.17 96.51 431.94 103.98
  Z"
/>
<path fill="#71c4e3" d="
  M 139.21 77.67
  C 141.49 79.42 143.67 80.99 145.75 82.40
  C 148.84 84.49 151.06 86.02 152.41 87.00
  C 162.65 94.41 173.34 100.87 184.18 107.59
  C 180.65 108.73 178.01 109.43 176.25 109.70
  C 161.43 111.96 146.64 114.82 131.89 118.27
  L 139.21 77.67
  Z"
/>
<path fill="#014260" d="
  M 57.95 92.48
  C 58.18 95.77 58.35 99.06 58.47 102.34
  C 58.62 106.21 58.97 109.48 59.53 112.16
  C 61.39 121.05 64.51 128.83 68.89 135.48
  C 76.60 147.21 86.85 156.35 99.66 162.92
  C 105.00 165.65 110.75 168.59 116.91 171.74
  C 124.48 175.93 130.01 179.16 133.52 181.42
  C 144.13 188.26 153.36 196.51 157.19 208.99
  C 157.76 210.82 158.60 214.20 159.71 219.15
  L 160.09 226.59
  C 158.69 234.87 158.24 243.39 158.75 252.14
  C 157.88 261.00 158.72 269.12 161.26 276.50
  C 163.35 282.59 166.49 290.61 170.66 300.56
  C 173.05 306.26 174.46 310.23 174.87 312.48
  C 176.90 323.48 176.63 333.24 174.05 341.76
  C 172.38 347.28 171.35 350.92 170.94 352.69
  C 166.81 363.84 163.89 375.29 162.20 387.04
  C 161.87 389.33 161.69 391.64 161.66 393.97
  C 161.55 400.60 161.81 406.14 165.53 411.94
  C 167.12 414.42 169.13 416.31 171.56 417.61
  C 178.36 421.24 183.24 419.51 189.65 414.86
  C 195.81 431.56 203.71 446.08 213.35 458.41
  C 227.14 476.05 244.35 487.49 264.99 492.72
  C 279.02 496.27 293.27 497.79 307.75 497.28
  C 318.04 496.91 325.13 496.41 329.00 495.76
  C 334.31 494.87 339.68 494.05 345.11 493.28
  C 332.15 498.72 318.45 502.82 304.00 505.59
  C 269.33 512.22 235.28 512.02 201.85 505.01
  C 131.87 490.33 71.97 447.15 35.04 385.97
  C 15.34 353.34 3.66 317.22 0.00 277.63
  L 0.00 232.50
  C 0.43 229.39 0.84 226.29 1.21 223.18
  C 1.70 219.17 2.13 216.06 2.50 213.84
  C 10.14 168.53 28.62 128.07 57.95 92.48
  Z"
/>
<path fill="#71c4e3" d="
  M 431.94 103.98
  C 437.51 112.43 442.97 120.92 448.30 129.45
  C 454.19 138.89 456.06 148.96 453.91 159.67
  C 452.97 164.32 450.52 168.58 446.57 172.47
  C 438.08 180.82 428.08 182.88 416.59 178.63
  C 410.12 176.24 404.54 173.43 399.84 170.19
  L 377.42 147.21
  C 397.52 134.97 415.69 120.56 431.94 103.98
  Z"
/>
<path fill="#59b1df" d="
  M 184.18 107.59
  L 204.46 119.59
  C 194.31 126.62 184.10 133.55 173.83 140.40
  C 166.84 145.06 160.87 150.24 155.90 155.95
  C 151.75 160.72 146.82 167.54 145.92 173.87
  C 144.70 182.38 150.00 187.05 156.95 190.31
  C 164.01 193.61 171.47 195.86 179.34 197.37
  C 185.05 198.46 190.93 199.58 196.98 200.75
  C 203.11 201.92 209.24 203.65 215.50 204.75
  C 216.94 205.00 219.24 205.85 222.40 207.29
  C 217.05 209.16 211.63 210.59 206.14 211.56
  C 200.46 212.57 196.24 213.41 193.49 214.09
  C 184.32 216.34 175.08 218.23 165.75 219.75
  C 163.96 220.04 161.94 219.84 159.71 219.15
  C 158.60 214.20 157.76 210.82 157.19 208.99
  C 153.36 196.51 144.13 188.26 133.52 181.42
  C 130.01 179.16 124.48 175.93 116.91 171.74
  C 122.44 155.85 126.99 139.75 130.58 123.42
  C 130.98 121.62 131.42 119.90 131.89 118.27
  C 146.64 114.82 161.43 111.96 176.25 109.70
  C 178.01 109.43 180.65 108.73 184.18 107.59
  Z"
/>
<path fill="#005782" d="
  M 362.72 130.56
  L 377.42 147.21
  L 399.84 170.19
  C 398.42 170.89 396.84 171.07 395.09 170.73
  C 392.56 170.24 391.06 170.00 390.57 169.99
  C 387.10 169.96 383.77 170.33 380.56 171.10
  C 372.38 173.07 363.77 174.88 355.40 172.82
  C 346.16 170.56 337.93 162.75 340.20 152.57
  C 341.40 147.18 344.08 142.63 348.23 138.92
  C 350.60 136.79 355.43 134.01 362.72 130.56
  Z"
/>
<path fill="#66a142" d="
  M 366.79 197.88
  C 372.25 195.73 378.00 195.90 384.04 198.40
  C 389.95 200.85 393.20 205.25 393.79 211.59
  C 394.33 217.39 389.88 221.01 384.46 221.85
  C 373.89 223.50 360.97 217.72 361.13 205.30
  C 361.17 201.83 363.06 199.35 366.79 197.88
  Z"
/>
<path fill="#71c4e3" d="
  M 222.40 207.29
  C 230.54 209.60 238.37 213.00 245.88 217.48
  C 246.26 217.71 246.37 217.94 246.66 218.28
  C 243.99 226.14 241.11 233.92 238.02 241.63
  C 236.42 245.63 235.59 248.60 230.86 247.45
  C 206.88 241.61 183.29 234.66 160.09 226.59
  L 159.71 219.15
  C 161.94 219.84 163.96 220.04 165.75 219.75
  C 175.08 218.23 184.32 216.34 193.49 214.09
  C 196.24 213.41 200.46 212.57 206.14 211.56
  C 211.63 210.59 217.05 209.16 222.40 207.29
  Z"
/>
<path fill="#66a142" d="
  M 246.66 218.28
  C 246.82 218.11 247.19 218.17 247.77 218.48
  C 257.32 223.49 265.72 229.70 272.97 237.09
  C 277.20 241.46 280.69 245.86 283.44 250.29
  C 284.65 252.25 285.78 254.71 286.84 257.67
  C 285.26 257.98 283.73 258.00 282.25 257.72
  C 267.30 254.90 252.30 252.38 237.48 248.80
  C 235.99 248.43 234.95 248.96 234.36 250.37
  C 229.57 261.81 224.22 272.99 218.32 283.90
  C 209.13 277.31 203.27 273.26 200.75 271.77
  C 187.44 263.90 173.44 257.35 158.75 252.14
  C 158.24 243.39 158.69 234.87 160.09 226.59
  C 183.29 234.66 206.88 241.61 230.86 247.45
  C 235.59 248.60 236.42 245.63 238.02 241.63
  C 241.11 233.92 243.99 226.14 246.66 218.28
  Z"
/>
<path fill="#014260" d="
  M 286.84 257.67
  C 288.63 261.84 289.49 265.95 289.40 270.01
  C 289.21 278.34 286.91 286.18 282.50 293.51
  C 278.77 299.70 275.25 304.69 271.94 308.48
  C 268.69 312.20 265.42 316.01 262.13 319.90
  C 260.87 321.39 259.53 322.70 258.12 323.83
  C 257.23 323.23 256.69 322.80 256.49 322.53
  C 249.79 313.79 242.43 305.65 234.41 298.10
  C 232.06 295.89 226.84 291.35 218.73 284.49
  C 218.66 284.26 218.53 284.06 218.32 283.90
  C 224.22 272.99 229.57 261.81 234.36 250.37
  C 234.95 248.96 235.99 248.43 237.48 248.80
  C 252.30 252.38 267.30 254.90 282.25 257.72
  C 283.73 258.00 285.26 257.98 286.84 257.67
  Z"
/>
<path fill="#71c4e3" d="
  M 158.75 252.14
  C 173.44 257.35 187.44 263.90 200.75 271.77
  C 203.27 273.26 209.13 277.31 218.32 283.90
  C 218.53 284.06 218.66 284.26 218.73 284.49
  C 217.26 285.67 216.15 286.97 215.38 288.39
  C 204.37 308.70 190.79 329.19 174.64 349.87
  C 173.95 350.75 173.36 351.69 172.86 352.68
  C 172.69 353.04 172.39 353.28 171.98 353.39
  C 171.65 353.48 171.39 353.39 171.20 353.10
  L 170.94 352.69
  C 171.35 350.92 172.38 347.28 174.05 341.76
  C 176.63 333.24 176.90 323.48 174.87 312.48
  C 174.46 310.23 173.05 306.26 170.66 300.56
  C 166.49 290.61 163.35 282.59 161.26 276.50
  C 158.72 269.12 157.88 261.00 158.75 252.14
  Z"
/>
<path fill="#59b1df" d="
  M 218.73 284.49
  C 226.84 291.35 232.06 295.89 234.41 298.10
  C 242.43 305.65 249.79 313.79 256.49 322.53
  C 256.69 322.80 257.23 323.23 258.12 323.83
  C 246.87 334.79 237.80 344.16 230.93 351.94
  C 223.79 360.02 217.56 369.42 212.23 380.13
  C 208.18 388.27 205.64 393.26 204.59 395.09
  C 201.27 400.93 198.49 405.40 196.25 408.50
  C 194.92 410.33 192.72 412.45 189.65 414.86
  C 183.24 419.51 178.36 421.24 171.56 417.61
  C 169.13 416.31 167.12 414.42 165.53 411.94
  C 161.81 406.14 161.55 400.60 161.66 393.97
  C 161.69 391.64 161.87 389.33 162.20 387.04
  C 163.89 375.29 166.81 363.84 170.94 352.69
  L 171.20 353.10
  C 171.39 353.39 171.65 353.48 171.98 353.39
  C 172.39 353.28 172.69 353.04 172.86 352.68
  C 173.36 351.69 173.95 350.75 174.64 349.87
  C 190.79 329.19 204.37 308.70 215.38 288.39
  C 216.15 286.97 217.26 285.67 218.73 284.49
  Z"
/>
<path fill="#acdfec" d="
  M 438.26 320.76
  L 439.17 345.67
  C 426.50 353.63 413.26 360.85 399.46 367.33
  C 398.95 367.45 398.53 367.44 398.19 367.30
  C 397.88 367.18 397.70 366.96 397.63 366.64
  L 397.16 364.48
  C 400.16 363.53 400.99 361.84 399.66 359.41
  C 398.31 356.95 396.73 354.25 394.91 351.30
  C 392.47 347.34 393.27 338.69 393.45 333.55
  C 393.68 326.59 391.88 321.59 385.43 318.01
  C 380.89 315.49 376.44 313.19 372.07 311.10
  C 367.43 308.89 361.68 305.28 363.76 299.16
  C 366.85 290.08 388.36 298.30 394.05 301.04
  C 398.63 303.24 403.32 305.29 408.11 307.20
  C 413.65 309.41 418.94 312.44 424.35 315.11
  C 428.60 317.21 433.24 319.09 438.26 320.76
  Z"
/>
<path fill="#59b1df" d="
  M 397.16 364.48
  L 397.63 366.64
  C 397.70 366.96 397.88 367.18 398.19 367.30
  C 398.53 367.44 398.95 367.45 399.46 367.33
  C 398.44 368.07 397.86 368.93 397.71 369.91
  C 398.02 369.06 397.48 368.67 396.09 368.73
  C 395.91 368.74 395.74 368.78 395.58 368.85
  C 387.07 372.74 379.00 376.16 371.39 379.12
  C 370.80 379.35 370.29 379.75 369.93 380.27
  L 366.16 385.78
  C 365.81 386.30 365.95 387.02 366.47 387.37
  L 377.12 394.50
  C 377.45 397.57 377.76 400.95 378.06 404.62
  C 378.39 408.67 378.34 411.58 377.91 413.37
  C 376.53 419.01 372.21 423.51 365.95 422.97
  C 359.85 422.44 353.84 422.61 347.96 424.46
  C 341.99 426.35 336.11 428.90 330.32 432.12
  C 316.68 439.73 303.33 446.04 287.32 444.12
  C 279.36 443.16 271.78 438.42 271.06 429.90
  C 269.96 416.77 279.49 404.91 290.16 397.88
  C 299.66 391.63 308.46 385.99 316.16 376.70
  L 328.14 391.15
  C 328.84 392.00 329.97 392.35 331.04 392.06
  C 342.03 389.04 353.09 385.61 364.21 381.78
  C 365.56 381.31 365.89 380.46 365.19 379.21
  C 356.88 364.32 349.27 348.65 342.35 332.20
  C 339.82 326.19 337.10 320.12 334.19 314.01
  C 343.10 311.86 352.13 311.85 361.29 314.00
  C 366.62 315.25 371.31 317.81 375.38 321.68
  C 379.57 325.67 379.60 329.77 378.68 335.29
  C 376.87 346.17 379.99 355.23 388.06 362.47
  C 390.49 364.64 393.52 365.31 397.16 364.48
  Z"
/>
<path fill="#66a142" d="
  M 334.19 314.01
  C 337.10 320.12 339.82 326.19 342.35 332.20
  C 349.27 348.65 356.88 364.32 365.19 379.21
  C 365.89 380.46 365.56 381.31 364.21 381.78
  C 353.09 385.61 342.03 389.04 331.04 392.06
  C 329.97 392.35 328.84 392.00 328.14 391.15
  L 316.16 376.70
  C 320.47 369.84 321.93 361.94 320.54 353.01
  C 319.81 348.36 319.02 343.74 318.16 339.13
  C 316.92 332.46 316.57 324.37 322.48 319.55
  C 325.79 316.85 329.70 315.00 334.19 314.01
  Z"
/>
<path fill="#71c4e3" d="
  M 438.26 320.76
  L 467.37 325.93
  C 458.04 333.22 448.71 339.81 439.38 345.68
  C 439.31 345.68 439.24 345.68 439.17 345.67
  L 438.26 320.76
  Z"
/>
<path fill="#24753b" d="
  M 499.51 340.53
  C 499.16 342.12 498.55 344.11 497.68 346.51
  C 487.35 374.97 471.90 402.05 450.60 423.78
  C 449.98 419.77 448.63 415.52 447.98 412.05
  C 445.13 396.86 442.93 382.65 441.36 369.43
  C 440.58 362.84 439.92 354.92 439.38 345.68
  C 448.71 339.81 458.04 333.22 467.37 325.93
  C 471.60 326.54 475.98 327.58 480.51 329.06
  C 487.46 331.33 493.80 335.15 499.51 340.53
  Z"
/>
<path fill="#66a142" d="
  M 439.17 345.67
  C 439.24 345.68 439.31 345.68 439.38 345.68
  C 439.92 354.92 440.58 362.84 441.36 369.43
  C 442.93 382.65 445.13 396.86 447.98 412.05
  C 448.63 415.52 449.98 419.77 450.60 423.78
  C 446.59 428.07 443.10 431.52 440.12 434.13
  C 432.08 441.16 422.87 448.55 412.49 456.30
  L 405.01 444.98
  C 404.56 444.30 404.51 443.44 404.86 442.71
  C 408.21 435.77 411.76 428.90 410.42 421.29
  C 409.58 416.52 407.23 412.99 403.38 410.69
  C 396.96 406.85 389.64 403.16 393.55 394.20
  C 394.52 391.97 396.48 390.03 397.35 387.83
  C 399.23 383.05 398.56 380.31 395.35 379.60
  C 396.63 376.57 397.42 373.34 397.71 369.91
  C 397.86 368.93 398.44 368.07 399.46 367.33
  C 413.26 360.85 426.50 353.63 439.17 345.67
  Z"
/>
<path fill="#acdfec" d="
  M 397.71 369.91
  C 397.42 373.34 396.63 376.57 395.35 379.60
  C 393.16 379.69 391.21 379.80 389.51 379.91
  C 383.85 380.27 380.10 382.92 378.27 387.87
  C 377.58 389.73 377.48 392.19 377.12 394.50
  L 366.47 387.37
  C 365.95 387.02 365.81 386.30 366.16 385.78
  L 369.93 380.27
  C 370.29 379.75 370.80 379.35 371.39 379.12
  C 379.00 376.16 387.07 372.74 395.58 368.85
  C 395.74 368.78 395.91 368.74 396.09 368.73
  C 397.48 368.67 398.02 369.06 397.71 369.91
  Z"
/>
</svg>
