<svg id="Capa_1" data-name="Capa 1" xmlns="http://www.w3.org/2000/svg" viewBox="0 0 2001.38 491.2"><defs><style>.cls-1{fill:#014260;}</style></defs><path class="cls-1" d="M190.9,115.23a.6.6,0,0,0,.7,0Q224.28,90.61,266.29,92c33.44,1.08,61.56,15,83.62,39.47A112.54,112.54,0,0,1,379,196a183.06,183.06,0,0,1,.77,19.2q-.1,177.86,0,357.31a.47.47,0,0,1-.46.46H285.7a.43.43,0,0,1-.49-.49q.17-188.05-.07-359.9c0-1.5-.07-3.16-.21-5q-.71-9.24-8.64-15.84c-12.18-10.13-31.42-4.67-36.71,10.7a26,26,0,0,0-1.14,8.31q.12,181.32,0,361.94a.25.25,0,0,1-.25.25H144.74a.43.43,0,0,1-.49-.48V211.21c0-14.35-10.69-25.29-25.35-24.45C105.6,187.51,97,199.34,97,212q0,149.35,0,360.49a.49.49,0,0,1-.56.55H3a.25.25,0,0,1-.25-.25q-.16-186.17.09-362.38c0-25.84,7.24-49.58,22.42-70a128.1,128.1,0,0,1,28.42-27.76q25.7-18.4,59.41-20.49Q156.31,89.45,190.9,115.23Z" transform="translate(-2.72 -91.89)"/><path class="cls-1" d="M853.5,479.5v93.25a.25.25,0,0,1-.25.25H759.72a.77.77,0,0,1-.77-.78q0-177.33,0-360.93a148.19,148.19,0,0,1,.76-16.26c3.58-31.88,20.34-59.36,45.56-79.08a111.32,111.32,0,0,1,63.6-23.8q55.9-3.24,93.91,36.88,28.1,29.66,31.54,69.73.57,6.68.55,18.8-.2,177-.06,355.14a.29.29,0,0,1-.3.3H900.75a.44.44,0,0,1-.5-.5V479.25a.44.44,0,0,0-.5-.5h-45.5A.66.66,0,0,0,853.5,479.5Zm.44-95.24H899.8a.49.49,0,0,0,.49-.49V210.23c0-13.23-10.44-23.95-23.32-23.95h-.2c-12.88,0-23.32,10.72-23.32,23.95V383.77A.49.49,0,0,0,853.94,384.26Z" transform="translate(-2.72 -91.89)"/><path class="cls-1" d="M1152.5,488.06V451.75a.24.24,0,0,0-.25-.25H1130.5a.22.22,0,0,1-.25-.25V357.62a.56.56,0,0,1,.63-.63H1246a1,1,0,0,1,1,1V577.3a.55.55,0,0,1-.59.62q-53.57,2.45-107.19,4.94-7.5.35-15.16.09-34.41-1.19-61.67-20.27c-27.2-19.06-45.66-47.77-50.15-81a149.72,149.72,0,0,1-1.07-19.92q.23-91.33,0-179.41,0-12.67.7-19.85c3.2-31.43,19.07-58.93,43.49-78.87q28.49-23.25,65.75-25.51a139.29,139.29,0,0,1,20.14.24c33.49,3,61.84,19.88,82.2,46.44a111.71,111.71,0,0,1,22.89,57.2,174.43,174.43,0,0,1,.74,19.68q-.19,20.85,0,41.45a.6.6,0,0,1-.6.6h-93.67a.32.32,0,0,1-.32-.33q.16-25.59,0-49.26-.06-6.95-5.56-13.56a23.09,23.09,0,0,0-29-5.41c-6.13,3.36-12.08,11.37-12.07,19.11q0,93.74,0,190.05A26.09,26.09,0,0,0,1107,473a23.78,23.78,0,0,0,22.32,15.74q11.14,0,22.51,0A.62.62,0,0,0,1152.5,488.06Z" transform="translate(-2.72 -91.89)"/><path class="cls-1" d="M1609.5,479.25v93.5a.25.25,0,0,1-.25.25h-93.53a.76.76,0,0,1-.75-.75q.1-145.44,0-294.2a152.54,152.54,0,0,1,.84-17.77c3.61-30.67,19.47-57.25,43.34-76.7a111.91,111.91,0,0,1,65.48-25.43c27.56-1.68,53.5,4.84,75.63,20.64,28.36,20.26,46.85,50.27,50,85.22q.62,6.78.6,19.93-.16,147.74,0,288.75a.31.31,0,0,1-.31.31h-93.72a.44.44,0,0,1-.5-.5V479.25a.44.44,0,0,0-.5-.5H1610A.44.44,0,0,0,1609.5,479.25Zm.46-95h45.82a.51.51,0,0,0,.51-.51v-108A23.56,23.56,0,0,0,1632.94,252h-.14a23.56,23.56,0,0,0-23.35,23.77v108A.51.51,0,0,0,1610,384.26Z" transform="translate(-2.72 -91.89)"/><path class="cls-1" d="M1999.29,489.65c-6.79,24.14-22.79,45.42-42.82,60.59a110.78,110.78,0,0,1-52.28,21.7,141.5,141.5,0,0,1-19.66,1.11q-57.87-.12-115.46,0a.5.5,0,0,1-.57-.57V479.06a.48.48,0,0,1,.55-.55q57.4,0,118,0c10.4,0,20.3-8.11,22.27-18.34q2.12-11-4.42-19.23a22.66,22.66,0,0,0-11.24-8q-3.93-1.18-12.28-1.35a109.57,109.57,0,0,1-54.45-15.56q-23.43-13.87-39.71-38.14c-12.4-18.5-18.56-40.72-18.69-63.15q-.1-20.34.06-40.45.35-40.67,25.2-71.61c21.28-26.5,50.89-42.72,85.21-44.56q56.38-3,94.22,37.77,26.17,28.23,30.14,66.12a171.43,171.43,0,0,1,.72,18.6q-.16,22.94,0,42.59a.78.78,0,0,1-.78.78H1910a.27.27,0,0,1-.27-.26q-.11-22.64,0-46a28.21,28.21,0,0,0-1.34-10c-5.43-14.25-23.25-20.05-35.44-11.15a23.67,23.67,0,0,0-8.54,10.52,30.86,30.86,0,0,0-1.57,11.13q.13,18,.06,35.78a23.41,23.41,0,0,0,14.83,21.79q3.6,1.4,11.77,1.72,6.57.25,12.72,1c30.9,3.88,57.18,19.51,76.68,43.8C2003.31,412.66,2009.71,452.62,1999.29,489.65Z" transform="translate(-2.72 -91.89)"/><rect class="cls-1" x="392.53" y="75.11" width="94.5" height="406" rx="0.39"/><path class="cls-1" d="M603.75,364.53v208a.44.44,0,0,1-.5.5H510a.5.5,0,0,1-.5-.5v-404a.44.44,0,0,1,.5-.5h93.27a.5.5,0,0,1,.49.55,3.84,3.84,0,0,0,.3,2.17q23.15,54.12,46.1,107.86c.39.92.59.88.59-.12v-110a.5.5,0,0,1,.5-.5H744.5a.44.44,0,0,1,.5.5v404a.5.5,0,0,1-.5.5H651a.29.29,0,0,1-.28-.28q0-49.25,0-97.64a12.21,12.21,0,0,0-1-4.85q-22.1-51.45-45.37-105.82C604,363.44,603.75,363.48,603.75,364.53Z" transform="translate(-2.72 -91.89)"/><path class="cls-1" d="M1390.72,486.82a23.7,23.7,0,0,0,14.53-21.74V168.55a.48.48,0,0,1,.55-.55H1499a.47.47,0,0,1,.53.54q0,146.6,0,293.23,0,7-.56,14.26c-2.66,34.32-20.08,63.89-47.32,84.4q-27,20.34-61.8,22.41c-32.31,1.92-61.57-7.39-85.66-28.78-26.31-23.37-40.23-53.43-40.29-88.74q-.21-136.57-.07-297.07a.22.22,0,0,1,.25-.25H1358a.47.47,0,0,1,.53.54q.06,149.76,0,298.16c0,9.86,8.62,19.51,18.4,21.4A22.94,22.94,0,0,0,1390.72,486.82Z" transform="translate(-2.72 -91.89)"/></svg>